<?xml version="1.0" encoding="UTF-8"?>
<svg version="1.1" xmlns="http://www.w3.org/2000/svg" width="512" height="512">
<path d="M0 0 C168.96 0 337.92 0 512 0 C512 168.96 512 337.92 512 512 C343.04 512 174.08 512 0 512 C0 343.04 0 174.08 0 0 Z " fill="#000000" transform="translate(0,0)"/>
<path d="M0 0 C18.70522317 15.75264982 30.14847131 37.61372598 34.08984375 61.62109375 C34.47928317 66.65159945 34.51147023 71.64016334 34.46484375 76.68359375 C34.47644531 77.94236328 34.48804688 79.20113281 34.5 80.49804688 C34.41558139 107.75118909 21.86245999 131.32007948 2.85791016 150.21948242 C-16.00246662 168.33914586 -41.37296382 177.10665914 -67.28515625 176.87109375 C-68.38005371 176.86360107 -69.47495117 176.8561084 -70.60302734 176.84838867 C-99.38893099 176.46619933 -123.62122842 165.53178709 -143.84423828 145.17504883 C-164.56128953 123.49807888 -170.56175231 96.19570655 -170.19140625 67.00390625 C-169.98973559 58.96329721 -168.87155205 52.14595193 -165.91015625 44.62109375 C-165.54792969 43.61175781 -165.18570313 42.60242188 -164.8125 41.5625 C-159.9413092 28.86437889 -152.9584354 17.73192311 -143.91015625 7.62109375 C-143.38292969 7.01136719 -142.85570312 6.40164062 -142.3125 5.7734375 C-105.72143367 -33.81229411 -40.09143784 -33.03312596 0 0 Z " fill="#F7F7F8" transform="translate(323.91015625,179.37890625)"/>
<path d="M0 0 C5.59914083 1.83788592 11.12641924 3.85407523 16.66015625 5.87890625 C19.46295322 6.81972816 22.10513101 7.45680722 25 8 C24.9292627 8.70745361 24.85852539 9.41490723 24.78564453 10.14379883 C24.0574728 18.00843748 23.84837159 25.79217611 23.875 33.6875 C23.87113281 34.84572266 23.86726563 36.00394531 23.86328125 37.19726562 C23.87049624 43.55006803 24.15500519 49.70277678 25 56 C21.58477263 57.31626691 18.16757936 58.62735326 14.75 59.9375 C13.78191406 60.31068359 12.81382812 60.68386719 11.81640625 61.06835938 C10.88183594 61.42607422 9.94726562 61.78378906 8.984375 62.15234375 C8.12553711 62.48226318 7.26669922 62.81218262 6.38183594 63.15209961 C4.26570478 63.9054128 2.18819751 64.50167567 0 65 C-7.29099823 45.35677663 -9.77343269 21.20877167 -0.8671875 1.4921875 C-0.58101562 0.99976563 -0.29484375 0.50734375 0 0 Z " fill="#000000" transform="translate(166,224)"/>
<path d="M0 0 C15.18 0 30.36 0 46 0 C46 10.89 46 21.78 46 33 C30.82 32.67 15.64 32.34 0 32 C0 21.44 0 10.88 0 0 Z " fill="#020204" transform="translate(233,240)"/>
<path d="M0 0 C7.24506542 17.56746632 6.99155964 42.44455099 0 60 C-0.65821849 61.33752407 -1.32343877 62.67166001 -2 64 C-5.29242545 62.85633882 -8.58380714 61.70970297 -11.875 60.5625 C-12.81214844 60.23701172 -13.74929688 59.91152344 -14.71484375 59.57617188 C-15.61074219 59.26357422 -16.50664062 58.95097656 -17.4296875 58.62890625 C-18.25710449 58.34088135 -19.08452148 58.05285645 -19.93701172 57.75610352 C-22 57 -22 57 -24 56 C-23.85780029 55.29182129 -23.71560059 54.58364258 -23.5690918 53.85400391 C-22.10343052 45.95882111 -21.72653755 38.39212919 -21.8125 30.375 C-21.81314453 29.22515625 -21.81378906 28.0753125 -21.81445312 26.890625 C-21.84872719 20.203375 -22.17995632 13.63772988 -23 7 C-19.00694901 5.3162635 -15.0060953 3.65245302 -11 2 C-10.18402344 1.65839844 -9.36804688 1.31679687 -8.52734375 0.96484375 C-3.34878178 -1.11626059 -3.34878178 -1.11626059 0 0 Z " fill="#1701A3" transform="translate(344,225)"/>
<path d="M0 0 C10.23 0 20.46 0 31 0 C33.06364328 5.50304874 34.67243114 10.32005184 35.6875 16 C35.81705078 16.66 35.94660156 17.32 36.08007812 18 C36.95262331 22.72744058 37.11263383 27.19429005 37 32 C32.37817094 33.17064733 27.9306328 33.12797691 23.19921875 33.09765625 C22.36284378 33.0962413 21.52646881 33.09482635 20.66474915 33.09336853 C18.005629 33.08779184 15.3465945 33.07524365 12.6875 33.0625 C10.87955851 33.05748199 9.0716157 33.05291961 7.26367188 33.04882812 C2.84241516 33.03783004 -1.57877793 33.0205815 -6 33 C-5.50013496 26.65918659 -4.85260123 20.47991887 -3.5625 14.25 C-3.31628906 13.03828125 -3.07007813 11.8265625 -2.81640625 10.578125 C-2.00471642 7.02067102 -1.0024242 3.5084847 0 0 Z " fill="#040405" transform="translate(240,201)"/>
<path d="M0 0 C14.19 0 28.38 0 43 0 C43 10.12931376 43 10.12931376 41.94140625 14.62109375 C41.72033203 15.57564453 41.49925781 16.53019531 41.27148438 17.51367188 C40.92053711 18.9609668 40.92053711 18.9609668 40.5625 20.4375 C40.33240234 21.42943359 40.10230469 22.42136719 39.86523438 23.44335938 C38.16635497 30.66729006 38.16635497 30.66729006 37 33 C27.1 33 17.2 33 7 33 C2.38360815 17.99672648 2.38360815 17.99672648 1.25 10.875 C1.12496094 10.14796875 0.99992188 9.4209375 0.87109375 8.671875 C0.37957401 5.74436185 0 2.97358355 0 0 Z " fill="#010102" transform="translate(234,279)"/>
<path d="M0 0 C2.29063088 6.38104316 2.30619574 12.39004121 2.25 19.125 C2.24613281 20.23415771 2.24226563 21.34331543 2.23828125 22.48608398 C2.15731909 30.15556188 1.67145148 37.49339201 0 45 C-6.18332019 44.17613546 -12.30352285 43.06680779 -18.4375 41.9375 C-21.923125 41.298125 -25.40875 40.65875 -29 40 C-29 28.45 -29 16.9 -29 5 C-25.82375 4.360625 -22.6475 3.72125 -19.375 3.0625 C-18.3854834 2.86277588 -17.3959668 2.66305176 -16.37646484 2.45727539 C-4.12846348 0 -4.12846348 0 0 0 Z " fill="#020205" transform="translate(314,234)"/>
<path d="M0 0 C9.78503146 0.62503505 19.35368098 2.32748978 29 4 C29.167247 8.823616 29.32784308 13.64738911 29.48217773 18.47143555 C29.53566959 20.11374934 29.59100431 21.75600416 29.64819336 23.39819336 C29.72990479 25.75361406 29.80506639 28.10916482 29.87890625 30.46484375 C29.90594131 31.20339096 29.93297638 31.94193817 29.96083069 32.7028656 C30.0129438 34.46785616 30.0118612 36.2342801 30 38 C27.99908313 40.00091687 24.19318734 39.63591915 21.4375 39.9375 C14.81649589 40.69888572 14.81649589 40.69888572 8.3125 42.125 C5.31283822 42.91736349 3.06243238 43.07303927 0 43 C-2.58230244 28.86650542 -3.67819443 14.02311625 0 0 Z " fill="#000001" transform="translate(197,235)"/>
<path d="M0 0 C0.73089844 0.0815332 1.46179688 0.16306641 2.21484375 0.24707031 C3.01148438 0.33472656 3.808125 0.42238281 4.62890625 0.51269531 C5.46164063 0.61582031 6.294375 0.71894531 7.15234375 0.82519531 C7.98507813 0.91285156 8.8178125 1.00050781 9.67578125 1.09082031 C15.89221326 1.81506482 15.89221326 1.81506482 18.15234375 4.07519531 C17.9362793 6.59375 17.9362793 6.59375 17.2890625 9.74707031 C17.06154297 10.88660156 16.83402344 12.02613281 16.59960938 13.20019531 C16.34888672 14.39644531 16.09816406 15.59269531 15.83984375 16.82519531 C15.36417095 19.17407017 14.88889748 21.52302594 14.4140625 23.87207031 C14.0886145 25.43973145 14.0886145 25.43973145 13.7565918 27.0390625 C13.15876882 30.04291159 12.63978322 33.05165772 12.15234375 36.07519531 C9.97851562 35.76464844 9.97851562 35.76464844 7.8046875 35.45410156 C6.88880859 35.32326172 5.97292969 35.19242188 5.02929688 35.05761719 C-3.5703125 33.82910156 -3.5703125 33.82910156 -6.30517578 33.43115234 C-7.88690352 33.20970438 -9.47110834 33.00454567 -11.05810547 32.82470703 C-12.66323762 32.63806376 -14.2581555 32.36635217 -15.84765625 32.07519531 C-16.84765625 30.07519531 -16.84765625 30.07519531 -16.1328125 27.56347656 C-5.60892618 0.22827025 -5.60892618 0.22827025 0 0 Z " fill="#1903A2" transform="translate(215.84765625,196.9248046875)"/>
<path d="M0 0 C0.18175781 1.24394531 0.36351562 2.48789062 0.55078125 3.76953125 C1.77961434 11.97164186 2.99766683 20.02320738 5.44921875 27.96875 C6 30 6 30 6 33 C3.60530271 33.50604924 1.20948283 34.00499517 -1.1875 34.5 C-1.86103516 34.64308594 -2.53457031 34.78617187 -3.22851562 34.93359375 C-6.87509793 35.68069842 -10.27648957 36.17352282 -14 36 C-26.44609665 15.12267658 -26.44609665 15.12267658 -28 4 C-25.31275296 3.51937876 -22.62521967 3.04046504 -19.9375 2.5625 C-19.18533203 2.42779297 -18.43316406 2.29308594 -17.65820312 2.15429688 C-5.52057927 0 -5.52057927 0 0 0 Z " fill="#030303" transform="translate(228,280)"/>
<path d="M0 0 C1.60469807 2.10312702 2.78480866 3.93813523 4 6.25 C4.51046875 7.18259644 4.51046875 7.18259644 5.03125 8.1340332 C13 23.06600675 13 23.06600675 13 30 C9.27206058 30.67365384 5.54247005 31.33768978 1.8125 32 C0.75740234 32.19078125 -0.29769531 32.3815625 -1.38476562 32.578125 C-2.40634766 32.75859375 -3.42792969 32.9390625 -4.48046875 33.125 C-5.88655396 33.37636719 -5.88655396 33.37636719 -7.32104492 33.6328125 C-9.91967719 33.98899066 -12.38106212 34.06645996 -15 34 C-19.36275707 11.19872014 -19.36275707 11.19872014 -21 2 C-18.43944242 1.46742809 -15.87733671 0.94868156 -13.3125 0.4375 C-12.2306543 0.21030273 -12.2306543 0.21030273 -11.12695312 -0.02148438 C-3.46931264 -1.52503936 -3.46931264 -1.52503936 0 0 Z " fill="#1802A0" transform="translate(299,198)"/>
<path d="M0 0 C6.44362304 -0.2408831 12.2103966 0.64700392 18.5 2 C19.4178125 2.19078125 20.335625 2.3815625 21.28125 2.578125 C23.52241577 3.04503453 25.76180083 3.51910692 28 4 C26.63512403 13.14644153 20.91210144 27.63675029 14 34 C10.63421192 34.63833912 9.22768584 34.61251464 6 34 C4.42605469 33.76216797 4.42605469 33.76216797 2.8203125 33.51953125 C-0.12995326 33.05790143 -3.06472233 32.5479185 -6 32 C-5.40874855 25.96923521 -4.16975511 20.23559006 -2.765625 14.34375 C-1.6773506 9.59087815 -0.81859876 4.80565627 0 0 Z " fill="#030305" transform="translate(284,281)"/>
<path d="M0 0 C6.45054982 1.35253464 12.71105679 3.03060233 19 5 C17.35702837 9.38690362 15.26471699 13.46817456 13.125 17.625 C9.91536781 23.93398768 7.17372131 30.2500233 5 37 C-0.38735518 36.44100076 -4.83610191 35.09949531 -9.8125 33 C-10.47958984 32.72671875 -11.14667969 32.4534375 -11.83398438 32.171875 C-14.25584583 31.17478169 -16.65668508 30.17165746 -19 29 C-18.45028451 24.42190071 -16.48581531 21.09293499 -14 17.3125 C-13.60498291 16.70325684 -13.20996582 16.09401367 -12.80297852 15.46630859 C-9.04656852 9.81352341 -4.73943641 4.86268416 0 0 Z " fill="#030305" transform="translate(188,189)"/>
<path d="M0 0 C0.51046875 1.47146484 0.51046875 1.47146484 1.03125 2.97265625 C4.54168222 12.83237057 8.84701089 21.89725781 14 31 C11.44165429 31.86881541 8.87957539 32.7202133 6.3125 33.5625 C5.2306543 33.9327832 5.2306543 33.9327832 4.12695312 34.31054688 C-2.91433128 36.59333771 -2.91433128 36.59333771 -7 35 C-14.57906875 28.96803474 -21.7873161 17.02611191 -25 8 C-22.39653203 6.85255669 -19.79226795 5.70698532 -17.1875 4.5625 C-16.44951172 4.23701172 -15.71152344 3.91152344 -14.95117188 3.57617188 C-14.23896484 3.26357422 -13.52675781 2.95097656 -12.79296875 2.62890625 C-12.1383667 2.34088135 -11.48376465 2.05285645 -10.80932617 1.75610352 C-7.02562259 0.17492284 -4.07439009 -0.090542 0 0 Z " fill="#040405" transform="translate(194,287)"/>
<path d="M0 0 C0.495 0.99 0.495 0.99 1 2 C-0.20634392 4.37413241 -1.46744548 6.60773046 -2.84765625 8.87890625 C-3.46102089 9.90805397 -3.46102089 9.90805397 -4.08677673 10.95799255 C-4.95831668 12.4170313 -5.83373093 13.8737615 -6.71264648 15.32836914 C-8.03971377 17.52478671 -9.35589835 19.72740021 -10.66992188 21.93164062 C-14.94088193 29.07244221 -19.2609322 36.15628156 -24 43 C-26.28466797 42.81616211 -26.28466797 42.81616211 -29 42 C-30.80517578 39.80688477 -30.80517578 39.80688477 -32.4453125 36.94140625 C-33.04730469 35.91595703 -33.64929688 34.89050781 -34.26953125 33.83398438 C-34.88183594 32.75439453 -35.49414062 31.67480469 -36.125 30.5625 C-37.35100598 28.43546884 -38.58253085 26.31160643 -39.8203125 24.19140625 C-40.35930176 23.24467041 -40.89829102 22.29793457 -41.45361328 21.32250977 C-42.94610728 18.75776247 -42.94610728 18.75776247 -46 17 C-44.5459375 16.77957031 -44.5459375 16.77957031 -43.0625 16.5546875 C-29.53317315 14.35291268 -10.10739219 10.10739219 0 0 Z " fill="#1903A6" transform="translate(315,338)"/>
<path d="M0 0 C0.6084375 0.35191406 1.216875 0.70382812 1.84375 1.06640625 C16.38231097 9.25503691 31.16150514 15.94074544 48 17 C47.40832031 17.22292725 46.81664062 17.44585449 46.20703125 17.67553711 C43.32133674 19.40727303 42.3503288 21.27674317 40.6875 24.19140625 C40.08679688 25.21814453 39.48609375 26.24488281 38.8671875 27.30273438 C37.62071072 29.47885335 36.37592287 31.65594058 35.1328125 33.83398438 C34.53210938 34.85943359 33.93140625 35.88488281 33.3125 36.94140625 C32.77238281 37.88701416 32.23226562 38.83262207 31.67578125 39.80688477 C30 42 30 42 27.98046875 43.00366211 C26 43 26 43 24.51928711 42.00512695 C22.33210615 39.11852609 20.51066091 36.04255617 18.69140625 32.91796875 C18.28341293 32.2261702 17.87541962 31.53437164 17.45506287 30.8216095 C16.15324071 28.61273714 14.8575587 26.40034338 13.5625 24.1875 C12.27004377 21.98595751 10.97627015 19.78520683 9.6806488 17.58552551 C8.87606496 16.21880786 8.07342852 14.85094121 7.27308655 13.48173523 C5.50569104 10.47319132 3.70235494 7.53145506 1.72241211 4.6574707 C0 2 0 2 0 0 Z " fill="#1902A7" transform="translate(196,338)"/>
<path d="M0 0 C11.55 0 23.1 0 35 0 C35.99 2.97 36.98 5.94 38 9 C38.66 9.33 39.32 9.66 40 10 C38.27330078 10.27650391 38.27330078 10.27650391 36.51171875 10.55859375 C19.48950144 13.55444624 4.40081638 19.94809076 -9 31 C-10.31869792 27.04390625 -9.33490257 25.46930208 -7.91015625 21.58203125 C-7.501604 20.4525708 -7.09305176 19.32311035 -6.67211914 18.15942383 C-5.87535767 16.00769653 -5.87535767 16.00769653 -5.0625 13.8125 C-3.391875 9.254375 -1.72125 4.69625 0 0 Z " fill="#030305" transform="translate(200,147)"/>
<path d="M0 0 C11.22 0 22.44 0 34 0 C37.0788199 6.1576398 39.56701303 11.87986818 41.8125 18.3125 C42.13669922 19.20517578 42.46089844 20.09785156 42.79492188 21.01757812 C43.09591797 21.87416016 43.39691406 22.73074219 43.70703125 23.61328125 C44.11659058 24.77017456 44.11659058 24.77017456 44.53442383 25.95043945 C45 28 45 28 44 31 C43.23558594 30.43152344 42.47117187 29.86304688 41.68359375 29.27734375 C27.60613238 19.03777256 11.61452123 11.19420483 -6 10 C-5.01 9.67 -4.02 9.34 -3 9 C-2.01 6.03 -1.02 3.06 0 0 Z " fill="#030305" transform="translate(277,147)"/>
<path d="M0 0 C2.02489378 2.09268498 3.71243455 4.05875192 5.4375 6.375 C6.15546753 7.31424316 6.15546753 7.31424316 6.88793945 8.27246094 C17 21.77349312 17 21.77349312 17 27 C15.12616097 27.79441072 13.25087114 28.58539974 11.375 29.375 C10.33085937 29.81585938 9.28671875 30.25671875 8.2109375 30.7109375 C3.61244968 32.55704575 -0.00663539 34 -5 34 C-5.268125 33.15179688 -5.53625 32.30359375 -5.8125 31.4296875 C-8.3242107 23.9110798 -11.26335841 17.25236655 -15.49609375 10.53271484 C-16.40074269 9.06266031 -17.2088658 7.53413061 -18 6 C-17.67 5.01 -17.34 4.02 -17 3 C-14.453125 1.796875 -14.453125 1.796875 -11.25 0.75 C-10.20328125 0.39421875 -9.1565625 0.0384375 -8.078125 -0.328125 C-4.72484508 -1.06005919 -3.17025174 -1.3045055 0 0 Z " fill="#030304" transform="translate(323,191)"/>
<path d="M0 0 C5.330123 0.54193014 9.57894042 1.84658553 14.4375 4.0625 C15.07365234 4.34416016 15.70980469 4.62582031 16.36523438 4.91601562 C17.91363051 5.60289812 19.45733357 6.30034407 21 7 C19.16694465 16.57262241 10.86373047 28.34794373 3 34 C-1.23328181 33.86785742 -4.96182902 32.84427589 -8.9375 31.4375 C-9.70964844 31.16808594 -10.48179687 30.89867187 -11.27734375 30.62109375 C-11.84582031 30.41613281 -12.41429687 30.21117187 -13 30 C-12.42208537 24.94822901 -10.05179843 21.05343325 -7.625 16.6875 C-4.6002587 11.22832982 -2.0656471 5.8970893 0 0 Z " fill="#040405" transform="translate(318,288)"/>
<path d="M0 0 C9.24 0 18.48 0 28 0 C28.66 5.28 29.32 10.56 30 16 C26.58439086 17.31530914 23.16758762 18.62735009 19.75 19.9375 C18.78191406 20.31068359 17.81382812 20.68386719 16.81640625 21.06835938 C15.41455078 21.60493164 15.41455078 21.60493164 13.984375 22.15234375 C13.12553711 22.48226318 12.26669922 22.81218262 11.38183594 23.15209961 C9.26570478 23.9054128 7.18819751 24.50167567 5 25 C4.33322836 23.27879878 3.69312215 21.54727196 3.0625 19.8125 C2.70285156 18.84957031 2.34320313 17.88664062 1.97265625 16.89453125 C0.59883344 11.39372265 0.43485146 5.65306895 0 0 Z " fill="#1A03AC" transform="translate(161,264)"/>
<path d="M0 0 C4.39453125 11.71875 4.39453125 11.71875 5.18994141 13.8515625 C5.73930241 15.30857783 6.29924007 16.76164082 6.86865234 18.2109375 C9 23.68402778 9 23.68402778 9 27 C1.74 27 -5.52 27 -13 27 C-13.66 19.74 -14.32 12.48 -15 5 C-3.375 0 -3.375 0 0 0 Z " fill="#010103" transform="translate(336,227)"/>
<path d="M0 0 C5.28 1.32 10.56 2.64 16 4 C15.690625 6.51625 15.38125 9.0325 15.0625 11.625 C14.96718994 12.40568848 14.87187988 13.18637695 14.77368164 13.99072266 C14.69496826 14.6254248 14.61625488 15.26012695 14.53515625 15.9140625 C14.41732788 16.8723999 14.41732788 16.8723999 14.29711914 17.85009766 C13.92053085 20.57502493 13.45223312 23.28660129 13 26 C6.07 26 -0.86 26 -8 26 C-5.75 15.875 -5.75 15.875 -4.4921875 12.40234375 C-4.22792969 11.66435547 -3.96367187 10.92636719 -3.69140625 10.16601562 C-3.28728516 9.06290039 -3.28728516 9.06290039 -2.875 7.9375 C-2.59785156 7.16728516 -2.32070312 6.39707031 -2.03515625 5.60351562 C-1.3616363 3.73391715 -0.68152583 1.86669497 0 0 Z " fill="#020204" transform="translate(175,228)"/>
<path d="M0 0 C12.54 0 25.08 0 38 0 C35 11 35 11 34 14 C24.1 14 14.2 14 4 14 C0 3 0 3 0 0 Z " fill="#000001" transform="translate(237,240)"/>
<path d="M0 0 C0.66 0 1.32 0 2 0 C3.44832209 3.1200918 4.88156163 6.24690216 6.3125 9.375 C6.91868164 10.68017578 6.91868164 10.68017578 7.53710938 12.01171875 C7.93349609 12.88183594 8.32988281 13.75195312 8.73828125 14.6484375 C9.09962158 15.43395996 9.46096191 16.21948242 9.83325195 17.02880859 C11.49317894 21.2559087 12.6950567 25.65018899 14 30 C5.42 30 -3.16 30 -12 30 C-11.13151643 25.65758213 -9.90487467 21.87733113 -8.25 17.8125 C-7.98558105 17.15628662 -7.72116211 16.50007324 -7.44873047 15.82397461 C-5.23517047 10.40929689 -2.74705086 5.16591424 0 0 Z " fill="#040404" transform="translate(255,164)"/>
<path d="M0 0 C8.58 0 17.16 0 26 0 C23.87565527 6.37303419 21.7115467 12.28931059 19 18.375 C18.65710938 19.16777344 18.31421875 19.96054687 17.9609375 20.77734375 C17.62320312 21.53917969 17.28546875 22.30101562 16.9375 23.0859375 C16.63714844 23.7670459 16.33679688 24.4481543 16.02734375 25.14990234 C14.9245968 27.13579026 13.67289281 28.47698037 12 30 C0 5.15533981 0 5.15533981 0 0 Z " fill="#220DA5" transform="translate(243,318)"/>
<path d="M0 0 C3.76186057 4.59574747 5.26974198 9.76036512 7.1875 15.3125 C7.55552734 16.33279297 7.92355469 17.35308594 8.30273438 18.40429688 C8.65013672 19.40138672 8.99753906 20.39847656 9.35546875 21.42578125 C9.82956177 22.77796753 9.82956177 22.77796753 10.31323242 24.1574707 C11 27 11 27 11 34 C0.605 32.515 0.605 32.515 -10 31 C-7.75 20.875 -7.75 20.875 -6.0546875 16.30859375 C-5.70019531 15.34501953 -5.34570312 14.38144531 -4.98046875 13.38867188 C-4.61566406 12.41478516 -4.25085938 11.44089844 -3.875 10.4375 C-3.50246094 9.42880859 -3.12992188 8.42011719 -2.74609375 7.38085938 C-1.83587803 4.91860915 -0.92043712 2.45844342 0 0 Z " fill="#030208" transform="translate(217,199)"/>
<path d="M0 0 C2.97201536 4.45802304 4.37927051 9.39462418 6.125 14.4375 C6.68380859 16.01241211 6.68380859 16.01241211 7.25390625 17.61914062 C7.60582031 18.63041016 7.95773437 19.64167969 8.3203125 20.68359375 C8.64273926 21.60712646 8.96516602 22.53065918 9.29736328 23.48217773 C10 26 10 26 10 30 C3.35751464 31.91610155 -3.11059329 32.56367091 -10 33 C-10.74166635 25.79225663 -8.06999209 19.79135225 -5.5625 13.125 C-5.14162109 11.97257813 -4.72074219 10.82015625 -4.28710938 9.6328125 C-1.16753472 1.16753472 -1.16753472 1.16753472 0 0 Z " fill="#020106" transform="translate(294,199)"/>
<path d="M0 0 C-3.14899252 3.25395894 -6.4304588 6.30045098 -9.8125 9.3125 C-18.08760606 16.5425482 -18.08760606 16.5425482 -25 25 C-26.89692143 24.54619105 -28.79249595 24.08675008 -30.6875 23.625 C-32.27111328 23.24214844 -32.27111328 23.24214844 -33.88671875 22.8515625 C-36.70406766 22.08094511 -39.31668325 21.14501457 -42 20 C-32.36572519 9.78021678 -14.57988525 -0.88362941 0 0 Z " fill="#0C0C0C" transform="translate(237,164)"/>
<path d="M0 0 C10.23 0 20.46 0 31 0 C31 2.97 31 5.94 31 9 C28.99908313 11.00091687 25.19318734 10.63591915 22.4375 10.9375 C15.81649589 11.69888572 15.81649589 11.69888572 9.3125 13.125 C6.3547883 13.90628234 4.03339936 14.18958746 1 14 C-0.27138808 9.07337118 0 5.46314577 0 0 Z " fill="#1F09AA" transform="translate(196,264)"/>
<path d="M0 0 C2.10549604 1.95361443 3.86156249 3.81246994 5.6875 6 C10.09139847 11.03949148 14.57129621 15.37545757 19.94140625 19.4140625 C21.78861764 20.83715135 23.3978245 22.31080539 25 24 C9.59164583 22.32517889 -5.43442711 15.28050924 -17 5 C-14.71636622 2.71636622 -13.25204532 2.2847151 -10.1875 1.375 C-9.33542969 1.11460937 -8.48335937 0.85421875 -7.60546875 0.5859375 C-2.76283924 -0.50310962 -2.76283924 -0.50310962 0 0 Z " fill="#09090C" transform="translate(213,324)"/>
<path d="M0 0 C7.92 0 15.84 0 24 0 C21.75 12.375 21.75 12.375 19 18 C15.70757455 16.85633882 12.41619286 15.70970297 9.125 14.5625 C8.18785156 14.23701172 7.25070312 13.91152344 6.28515625 13.57617188 C5.38925781 13.26357422 4.49335938 12.95097656 3.5703125 12.62890625 C2.74289551 12.34088135 1.91547852 12.05285645 1.06298828 11.75610352 C-1 11 -1 11 -3 10 C-2.46599103 6.08393425 -1.80330533 3.60661066 0 0 Z " fill="#040409" transform="translate(323,271)"/>
<path d="M0 0 C14.66341854 1.61673589 28.11837064 9.294763 39 19 C35.83433427 21.11044382 33.48802585 21.75552077 29.8125 22.625 C28.72582031 22.88539063 27.63914062 23.14578125 26.51953125 23.4140625 C25.68808594 23.60742188 24.85664063 23.80078125 24 24 C23.27296875 23.17757812 22.5459375 22.35515625 21.796875 21.5078125 C15.66706239 14.67087195 9.39388776 8.5438595 2.203125 2.828125 C1.47609375 2.22484375 0.7490625 1.6215625 0 1 C0 0.67 0 0.34 0 0 Z " fill="#070707" transform="translate(276,165)"/>
<path d="M0 0 C3.70441555 0.8968585 7.02613165 2.37438533 10.3125 4.3125 C2.7788339 12.37729655 -7.19268004 16.98788162 -17.375 20.875 C-18.05796143 21.13853271 -18.74092285 21.40206543 -19.44458008 21.67358398 C-24.3068204 23.4393932 -24.3068204 23.4393932 -27.6875 22.3125 C-26.78128906 21.56226563 -25.87507813 20.81203125 -24.94140625 20.0390625 C-23.7097284 19.00664908 -22.4793499 17.97268433 -21.25 16.9375 C-20.28864136 16.13179565 -20.28864136 16.13179565 -19.30786133 15.30981445 C-15.37532221 11.95115197 -12.09556145 8.54002815 -8.875 4.5 C-5.99328618 1.15764048 -4.50810454 -0.3594502 0 0 Z " fill="#050505" transform="translate(303.6875,323.6875)"/>
<path d="M0 0 C8.58 0 17.16 0 26 0 C26.33 2.97 26.66 5.94 27 9 C24.39802798 10.00605593 21.79370638 11.00502525 19.1875 12 C18.44951172 12.28617187 17.71152344 12.57234375 16.95117188 12.8671875 C16.23896484 13.13789063 15.52675781 13.40859375 14.79296875 13.6875 C14.1383667 13.93886719 13.48376465 14.19023437 12.80932617 14.44921875 C11 15 11 15 8 15 C6.44870495 12.8940354 5.12351225 10.87244957 3.8125 8.625 C3.44447266 8.02171875 3.07644531 7.4184375 2.69726562 6.796875 C0 2.29309195 0 2.29309195 0 0 Z " fill="#020107" transform="translate(164,271)"/>
<path d="M0 0 C11.55 0 23.1 0 35 0 C35.99 2.97 36.98 5.94 38 9 C38.66 9.33 39.32 9.66 40 10 C38.02 10 36.04 10 34 10 C33.505 7.03 33.505 7.03 33 4 C23.1 4.33 13.2 4.66 3 5 C0.57254785 12.42781846 0.57254785 12.42781846 -1.81518555 19.8684082 C-2.1275415 20.79484131 -2.43989746 21.72127441 -2.76171875 22.67578125 C-3.07069092 23.62364502 -3.37966309 24.57150879 -3.69799805 25.5480957 C-5.2976644 28.56055571 -6.98475774 29.50875419 -10 31 C-8.59655809 23.85721934 -6.42502979 17.24666587 -3.875 10.4375 C-1.956875 5.2709375 -1.956875 5.2709375 0 0 Z " fill="#17019C" transform="translate(200,147)"/>
<path d="M0 0 C11.22 0 22.44 0 34 0 C37.0788199 6.1576398 39.56701303 11.87986818 41.8125 18.3125 C42.13669922 19.20517578 42.46089844 20.09785156 42.79492188 21.01757812 C43.09591797 21.87416016 43.39691406 22.73074219 43.70703125 23.61328125 C44.11659058 24.77017456 44.11659058 24.77017456 44.53442383 25.95043945 C45 28 45 28 44 31 C40.46667007 28.75584552 39.23933929 26.88783455 37.859375 22.96484375 C37.51132812 21.99095703 37.16328125 21.01707031 36.8046875 20.01367188 C36.45664062 18.99853516 36.10859375 17.98339844 35.75 16.9375 C35.38648438 15.91849609 35.02296875 14.89949219 34.6484375 13.84960938 C32 6.33740602 32 6.33740602 32 4 C22.1 4 12.2 4 2 4 C1.67 5.98 1.34 7.96 1 10 C-1.31 10 -3.62 10 -6 10 C-5.01 9.67 -4.02 9.34 -3 9 C-2.01 6.03 -1.02 3.06 0 0 Z " fill="#18029D" transform="translate(277,147)"/>
<path d="M0 0 C4.4839392 1.45873068 7.68094023 3.94992788 11.1875 7 C12.03090942 7.72280151 12.03090942 7.72280151 12.89135742 8.46020508 C18.18724375 13.05336947 23.14253132 17.94516238 28 23 C24.36280395 25.42479736 22.14296518 25.38662577 17.8125 25.625 C16.54019531 25.69976562 15.26789063 25.77453125 13.95703125 25.8515625 C12.98121094 25.90054688 12.00539063 25.94953125 11 26 C10.70867187 25.29617187 10.41734375 24.59234375 10.1171875 23.8671875 C6.80366803 15.88556513 3.41698393 7.93773586 0 0 Z " fill="#040406" transform="translate(265,167)"/>
<path d="M0 0 C0.33 0.66 0.66 1.32 1 2 C0.18714486 4.19914263 -0.72730917 6.36107612 -1.6875 8.5 C-2.24708649 9.76258131 -2.80567362 11.025606 -3.36328125 12.2890625 C-3.64123535 12.91458008 -3.91918945 13.54009766 -4.20556641 14.18457031 C-5.90990011 18.07929232 -7.44965895 22.0420705 -9 26 C-11.0839403 25.88556397 -13.16716493 25.75804453 -15.25 25.625 C-16.41015625 25.55539063 -17.5703125 25.48578125 -18.765625 25.4140625 C-21.70694334 25.03751692 -23.49949011 24.5225877 -26 23 C-18.50110216 13.85451877 -9.83103749 6.55402499 0 0 Z " fill="#09090A" transform="translate(245,167)"/>
<path d="M0 0 C1.05908203 1.99365234 1.05908203 1.99365234 2.0078125 4.5859375 C2.35457031 5.51664062 2.70132813 6.44734375 3.05859375 7.40625 C3.41050781 8.3859375 3.76242188 9.365625 4.125 10.375 C4.48464844 11.34695313 4.84429687 12.31890625 5.21484375 13.3203125 C6.52260175 16.86644281 7.80475948 20.41427844 9 24 C0.10501734 20.7866293 -11.61588113 11.97620992 -16.28515625 3.73046875 C-16.52105469 3.15941406 -16.75695312 2.58835937 -17 2 C-11.5206924 -0.05474035 -5.71081484 -1.90360495 0 0 Z " fill="#0C0B14" transform="translate(237,320)"/>
<path d="M0 0 C2.851772 3.42267272 5.22609842 6.88222596 7.453125 10.73828125 C8.071875 11.80498047 8.690625 12.87167969 9.328125 13.97070312 C9.96234375 15.07349609 10.5965625 16.17628906 11.25 17.3125 C11.8996875 18.43462891 12.549375 19.55675781 13.21875 20.71289062 C14.81618272 23.4731604 16.40979032 26.23556475 18 29 C17.34 29.66 16.68 30.32 16 31 C13.20029943 30.79679593 11.5071693 30.40364162 9.296875 28.64453125 C2.93501465 21.10990371 -3.67192067 12.35031811 -7 3 C-4.69 2.01 -2.38 1.02 0 0 Z " fill="#1B059E" transform="translate(176,292)"/>
<path d="M0 0 C5.78591511 -0.10477512 11.29309366 0.00749455 17 1 C12.87028024 10.70262116 1.64540974 18.33670944 -7 24 C-7.66 24 -8.32 24 -9 24 C-6.41874331 15.82602049 -3.22988119 7.93359166 0 0 Z " fill="#080808" transform="translate(275,320)"/>
<path d="M0 0 C1.32 0 2.64 0 4 0 C4.67260351 1.76858691 5.33788395 3.53996016 6 5.3125 C6.37125 6.29863281 6.7425 7.28476563 7.125 8.30078125 C8 11 8 11 8 14 C17.9 14 27.8 14 38 14 C38.66 11.03 39.32 8.06 40 5 C40.61896629 3.31503622 41.26117922 1.63596029 42 0 C43.32 0 44.64 0 46 0 C45.31040267 3.87898501 44.25091639 7.51564667 43 11.25 C42.4740625 12.83554688 42.4740625 12.83554688 41.9375 14.453125 C41 17 41 17 40 18 C37.47905924 18.08847743 34.98569107 18.11527301 32.46484375 18.09765625 C31.33496788 18.09553383 31.33496788 18.09553383 30.18226624 18.09336853 C27.7673044 18.08775376 25.35243399 18.07519883 22.9375 18.0625 C21.30403779 18.0574869 19.67057414 18.05292366 18.03710938 18.04882812 C14.02470415 18.03777954 10.01236759 18.02050506 6 18 C5.17934931 16.12855305 4.3688416 14.25265664 3.5625 12.375 C2.88380859 10.80878906 2.88380859 10.80878906 2.19140625 9.2109375 C1.04198295 6.11314749 0.42688777 3.26789946 0 0 Z " fill="#1903A3" transform="translate(233,240)"/>
<path d="M0 0 C6.27 0 12.54 0 19 0 C16.03013802 6.22712997 12.78477182 12.20560971 9.25 18.125 C8.84918213 18.80054932 8.44836426 19.47609863 8.03540039 20.17211914 C7.05368365 21.79993907 6.03074362 23.40277332 5 25 C4.67 25 4.34 25 4 25 C3.32902306 21.39662187 2.66396043 17.79217704 2 14.1875 C1.80921875 13.16333984 1.6184375 12.13917969 1.421875 11.08398438 C1.24140625 10.10107422 1.0609375 9.11816406 0.875 8.10546875 C0.70742187 7.19949951 0.53984375 6.29353027 0.3671875 5.36010742 C0 3 0 3 0 0 Z " fill="#1903A7" transform="translate(234,279)"/>
<path d="M0 0 C1.5631897 0.00785522 1.5631897 0.00785522 3.15795898 0.01586914 C4.28266602 0.0190918 5.40737305 0.02231445 6.56616211 0.02563477 C7.75016602 0.03401367 8.93416992 0.04239258 10.15405273 0.05102539 C11.34192383 0.05553711 12.52979492 0.06004883 13.75366211 0.06469727 C16.69967499 0.07652864 19.64558954 0.09301252 22.59155273 0.11352539 C22.59155273 3.08352539 22.59155273 6.05352539 22.59155273 9.11352539 C7.74155273 8.61852539 7.74155273 8.61852539 -7.40844727 8.11352539 C-2.84888182 0.13428586 -2.84888182 0.13428586 0 0 Z " fill="#210CA2" transform="translate(256.408447265625,263.886474609375)"/>
<path d="M0 0 C2.475 0.495 2.475 0.495 5 1 C3.6562094 10.00514222 -2.0688997 24.83716624 -9 31 C-12.01012353 31.74843362 -13.86534898 31.48641137 -17 31 C-16.34 30.67 -15.68 30.34 -15 30 C-14.85892822 29.10974121 -14.71785645 28.21948242 -14.57250977 27.30224609 C-13.93623021 23.63217474 -12.74222477 21.35183609 -10.83984375 18.1640625 C-10.21142578 17.10058594 -9.58300781 16.03710938 -8.93554688 14.94140625 C-7.94651367 13.29978516 -7.94651367 13.29978516 -6.9375 11.625 C-6.27427734 10.50738281 -5.61105469 9.38976562 -4.92773438 8.23828125 C-3.29347424 5.48708074 -1.65071466 2.74134841 0 0 Z " fill="#1D07A9" transform="translate(307,284)"/>
<path d="M0 0 C1.56800053 3.13600107 0.1358827 5.24333975 -0.94921875 8.50390625 C-1.61808247 10.50054564 -2.29195962 12.49503203 -2.97729492 14.48608398 C-3.68402641 16.55234433 -4.36485862 18.62600602 -5.04492188 20.70117188 C-5.49062065 22.01095089 -5.93783644 23.32021487 -6.38671875 24.62890625 C-6.79108154 25.82588135 -7.19544434 27.02285645 -7.61206055 28.25610352 C-9 31 -9 31 -10.96020508 31.98803711 C-14.11122852 32.00651708 -16.31129267 30.52767462 -19 29 C-18.45028451 24.42190071 -16.48581531 21.09293499 -14 17.3125 C-13.60498291 16.70325684 -13.20996582 16.09401367 -12.80297852 15.46630859 C-9.04656852 9.81352341 -4.73943641 4.86268416 0 0 Z " fill="#1A04A1" transform="translate(188,189)"/>
<path d="M0 0 C-4.29 6.93 -8.58 13.86 -13 21 C-17.04500194 19.65166602 -17.63621086 17.76735567 -19.75 14.125 C-20.38421875 13.05507813 -21.0184375 11.98515625 -21.671875 10.8828125 C-23 8 -23 8 -22 5 C-20.29760742 4.09277344 -20.29760742 4.09277344 -18.10546875 3.359375 C-17.31462891 3.09382813 -16.52378906 2.82828125 -15.70898438 2.5546875 C-14.87689453 2.28914063 -14.04480469 2.02359375 -13.1875 1.75 C-12.36701172 1.46898437 -11.54652344 1.18796875 -10.70117188 0.8984375 C-4.51456651 -1.12864163 -4.51456651 -1.12864163 0 0 Z " fill="#050508" transform="translate(303,348)"/>
<path d="M0 0 C8 2.66666667 16 5.33333333 24 8 C22.71226848 10.29395893 21.42003228 12.58516784 20.125 14.875 C19.76019531 15.52597656 19.39539063 16.17695313 19.01953125 16.84765625 C17.51339464 19.50393354 16.16980999 21.83019001 14 24 C13.32453125 22.91460937 12.6490625 21.82921875 11.953125 20.7109375 C11.05213204 19.26559463 10.15108764 17.82028384 9.25 16.375 C8.8065625 15.66214844 8.363125 14.94929688 7.90625 14.21484375 C5.88148719 10.96926807 3.84320381 7.7513296 1.671875 4.6015625 C0 2 0 2 0 0 Z " fill="#030206" transform="translate(209,346)"/>
<path d="M0 0 C0.99 0.33 1.98 0.66 3 1 C1.35692446 10.03691549 -1.87782279 18.38007597 -5 27 C1.93 27 8.86 27 16 27 C16 25.02 16 23.04 16 21 C16.33 21 16.66 21 17 21 C17 25.62 17 30.24 17 35 C16.67 33.68 16.34 32.36 16 31 C7.42 31 -1.16 31 -10 31 C-9.31437999 26.20065994 -8.73585111 22.72555646 -7.1875 18.3203125 C-6.83429688 17.3096875 -6.48109375 16.2990625 -6.1171875 15.2578125 C-5.56417969 13.70707031 -5.56417969 13.70707031 -5 12.125 C-4.44699219 10.53945312 -4.44699219 10.53945312 -3.8828125 8.921875 C-1.14332217 1.14332217 -1.14332217 1.14332217 0 0 Z " fill="#19049E" transform="translate(172,227)"/>
<path d="M0 0 C0.33 0 0.66 0 1 0 C1.34871424 6.39309449 0.04022473 12.11256952 -1.4375 18.3125 C-1.66759766 19.31345703 -1.89769531 20.31441406 -2.13476562 21.34570312 C-3.8461698 28.6923396 -3.8461698 28.6923396 -5 31 C-8.96 30.67 -12.92 30.34 -17 30 C-13.55327493 22.91506514 -9.82467539 16.11619091 -5.75 9.375 C-5.20859375 8.46621094 -4.6671875 7.55742187 -4.109375 6.62109375 C-3.59375 5.76386719 -3.078125 4.90664063 -2.546875 4.0234375 C-1.84836426 2.86207275 -1.84836426 2.86207275 -1.13574219 1.67724609 C-0.5735498 0.84700928 -0.5735498 0.84700928 0 0 Z " fill="#1B04A8" transform="translate(276,281)"/>
<path d="M0 0 C8.25 0 16.5 0 25 0 C25 1.98 25 3.96 25 6 C24 7 24 7 21.68334961 7.11352539 C20.68311768 7.10828857 19.68288574 7.10305176 18.65234375 7.09765625 C17.57275391 7.09443359 16.49316406 7.09121094 15.38085938 7.08789062 C14.24455078 7.07951172 13.10824219 7.07113281 11.9375 7.0625 C10.79732422 7.05798828 9.65714844 7.05347656 8.48242188 7.04882812 C5.65489649 7.03699747 2.8274736 7.0205141 0 7 C-0.33 7.66 -0.66 8.32 -1 9 C-0.67 6.03 -0.34 3.06 0 0 Z " fill="#1A02AD" transform="translate(323,264)"/>
<path d="M0 0 C1.98 0.66 3.96 1.32 6 2 C3.43696551 11.15048279 0.20468777 20.06006196 -3 29 C-3.33 29 -3.66 29 -4 29 C-4.33 32.63 -4.66 36.26 -5 40 C-5.33 40 -5.66 40 -6 40 C-6.55367485 26.98864109 -6.77062914 11.65036185 0 0 Z " fill="#121114" transform="translate(166,224)"/>
<path d="M0 0 C4.62 0 9.24 0 14 0 C11 14 11 14 8 19 C7.01 18.67 6.02 18.34 5 18 C3.95222369 15.52665762 3.09838539 13.17972108 2.3125 10.625 C2.08755859 9.93921875 1.86261719 9.2534375 1.63085938 8.546875 C0.68529527 5.59234644 0 3.1196449 0 0 Z " fill="#1600A2" transform="translate(249,201)"/>
<path d="M0 0 C2.475 0.495 2.475 0.495 5 1 C2.93954931 11.7601314 -5.60546257 20.44180077 -13 28 C-14.32 27.67 -15.64 27.34 -17 27 C-16.34 27 -15.68 27 -15 27 C-14.73268066 26.28432861 -14.46536133 25.56865723 -14.18994141 24.83129883 C-12.97897341 21.94997017 -11.56134368 19.38225264 -9.9609375 16.69921875 C-9.38085938 15.72275391 -8.80078125 14.74628906 -8.203125 13.74023438 C-7.59984375 12.73283203 -6.9965625 11.72542969 -6.375 10.6875 C-5.76398438 9.66076172 -5.15296875 8.63402344 -4.5234375 7.57617188 C-3.01880606 5.04886125 -1.5109006 2.52356601 0 0 Z " fill="#1B05A8" transform="translate(334,294)"/>
<path d="M0 0 C8.25 0 16.5 0 25 0 C25 1.98 25 3.96 25 6 C16.75 6 8.5 6 0 6 C0 4.02 0 2.04 0 0 Z " fill="#000000" transform="translate(323,258)"/>
<path d="M0 0 C4.36001681 3.10217125 6.90782434 6.41425984 9.6875 10.875 C10.07744141 11.47441406 10.46738281 12.07382813 10.86914062 12.69140625 C13.18870723 16.34720182 14.79972705 19.80225395 16 24 C13.69 24.99 11.38 25.98 9 27 C6 18 3 9 0 0 Z " fill="#1B05A2" transform="translate(324,194)"/>
<path d="M0 0 C1.62580966 0.11398665 3.25067157 0.24155659 4.875 0.375 C5.77992188 0.44460937 6.68484375 0.51421875 7.6171875 0.5859375 C10 1 10 1 12 3 C11.48703094 5.78890076 10.88187968 8.40305381 10.125 11.125 C9.92519531 11.87910156 9.72539062 12.63320312 9.51953125 13.41015625 C9.02348114 15.27624952 8.51307432 17.13851549 8 19 C7.34 19 6.68 19 6 19 C4.99394407 16.39802798 3.99497475 13.79370638 3 11.1875 C2.57074219 10.08051758 2.57074219 10.08051758 2.1328125 8.95117188 C1.86210937 8.23896484 1.59140625 7.52675781 1.3125 6.79296875 C1.06113281 6.1383667 0.80976563 5.48376465 0.55078125 4.80932617 C0 3 0 3 0 0 Z " fill="#060608" transform="translate(222,198)"/>
<path d="M0 0 C-0.94852343 2.96157034 -1.91047128 5.91860731 -2.875 8.875 C-3.14441406 9.71675781 -3.41382813 10.55851563 -3.69140625 11.42578125 C-3.95566406 12.23144531 -4.21992188 13.03710938 -4.4921875 13.8671875 C-4.73308105 14.61081543 -4.97397461 15.35444336 -5.22216797 16.12060547 C-6 18 -6 18 -8 20 C-9.32 13.73 -10.64 7.46 -12 1 C-7.76358987 0.15271797 -4.27587998 -0.08384078 0 0 Z " fill="#040406" transform="translate(290,199)"/>
<path d="M0 0 C1.98 0 3.96 0 6 0 C7.14250679 3.42752036 6.88048939 3.98217619 5.6015625 7.203125 C5.12976563 8.42708984 5.12976563 8.42708984 4.6484375 9.67578125 C4.31070313 10.52527344 3.97296875 11.37476563 3.625 12.25 C1.4034 17.86474687 -0.42922589 22.96610228 -1 29 C-1.33 29 -1.66 29 -2 29 C-2.3690205 9.03189066 -2.3690205 9.03189066 0 0 Z " fill="#2D1AA5" transform="translate(197,235)"/>
<path d="M0 0 C-0.45431396 0.71639648 -0.90862793 1.43279297 -1.37670898 2.17089844 C-2.91490569 4.85169607 -3.96714682 7.35078339 -4.97265625 10.265625 C-5.31490234 11.23757812 -5.65714844 12.20953125 -6.00976562 13.2109375 C-6.71683983 15.25213874 -7.42254947 17.29381314 -8.12695312 19.3359375 C-8.46791016 20.30273438 -8.80886719 21.26953125 -9.16015625 22.265625 C-9.46574463 23.15024414 -9.77133301 24.03486328 -10.08618164 24.94628906 C-11 27 -11 27 -13 28 C-14.60816489 21.50582592 -13.04558316 17.27128755 -10.5625 11.1875 C-9.89469323 9.49445084 -9.22920891 7.80048319 -8.56640625 6.10546875 C-8.26677979 5.36449951 -7.96715332 4.62353027 -7.65844727 3.86010742 C-6.88876877 2.01464092 -6.88876877 2.01464092 -7 0 C-2.25 -1.125 -2.25 -1.125 0 0 Z " fill="#1B05A2" transform="translate(296,198)"/>
<path d="M0 0 C1.1673418 3.5020254 0.79056598 4.29616038 -0.43359375 7.66796875 C-0.75263672 8.56064453 -1.07167969 9.45332031 -1.40039062 10.37304688 C-1.74263672 11.30181641 -2.08488281 12.23058594 -2.4375 13.1875 C-2.77587891 14.12787109 -3.11425781 15.06824219 -3.46289062 16.03710938 C-4.30048809 18.36114742 -5.14645283 20.68178235 -6 23 C-7.98 22.34 -9.96 21.68 -12 21 C-11.46792363 16.09929664 -9.2321996 12.8107825 -6.5625 8.8125 C-6.15451172 8.18408203 -5.74652344 7.55566406 -5.32617188 6.90820312 C-3.68679054 4.40767858 -2.11959177 2.11959177 0 0 Z " fill="#07070A" transform="translate(181,197)"/>
<path d="M0 0 C1.84532714 5.47059581 2.25309068 10.18819928 2.125 15.9375 C2.11597656 16.71673828 2.10695313 17.49597656 2.09765625 18.29882812 C2.07433691 20.19935447 2.03847586 22.09972008 2 24 C-0.32100162 20.51849756 -1.67675155 16.89433316 -3.125 13 C-3.40214844 12.27554688 -3.67929687 11.55109375 -3.96484375 10.8046875 C-5.11095711 7.74462128 -6 5.29457901 -6 2 C-6.99 1.67 -7.98 1.34 -9 1 C-5.94152152 0.45627049 -3.11227195 0 0 0 Z " fill="#210C9F" transform="translate(314,234)"/>
<path d="M0 0 C0.99 0 1.98 0 3 0 C4.00380916 2.79035046 5.0031945 5.58214855 6 8.375 C6.28617188 9.1690625 6.57234375 9.963125 6.8671875 10.78125 C7.13789063 11.54179687 7.40859375 12.30234375 7.6875 13.0859375 C7.93886719 13.7876709 8.19023437 14.4894043 8.44921875 15.21240234 C9 17 9 17 9 19 C9.66 19 10.32 19 11 19 C10.67 22.3 10.34 25.6 10 29 C5.78552554 26.89276277 4.82044713 19.85750693 3.3125 15.625 C2.88388672 14.46226562 2.45527344 13.29953125 2.01367188 12.1015625 C1.61341797 10.9878125 1.21316406 9.8740625 0.80078125 8.7265625 C0.43122314 7.70127441 0.06166504 6.67598633 -0.3190918 5.61962891 C-1 3 -1 3 0 0 Z " fill="#1C07A1" transform="translate(219,198)"/>
<path d="M0 0 C6.6 0 13.2 0 20 0 C18 4 18 4 15.13671875 5.046875 C13.99847656 5.27890625 12.86023438 5.5109375 11.6875 5.75 C10.55699219 5.99234375 9.42648438 6.2346875 8.26171875 6.484375 C5.42826308 6.93229853 2.85855002 7.10726267 0 7 C0 4.69 0 2.38 0 0 Z " fill="#0A0812" transform="translate(197,271)"/>
<path d="M0 0 C0.66 0 1.32 0 2 0 C6.15906977 6.11627907 6.15906977 6.11627907 5.4375 10.125 C4.07711365 12.84577269 2.65250522 15.44612829 1 18 C-4.11464968 11.49044586 -4.11464968 11.49044586 -3.8125 7.5625 C-2.90133577 4.68882821 -1.75154309 2.45216033 0 0 Z " fill="#050409" transform="translate(255,330)"/>
<path d="M0 0 C0.33 0.66 0.66 1.32 1 2 C0.01309144 4.88618576 -1.03933519 7.67850336 -2.1875 10.5 C-2.67198608 11.71598877 -2.67198608 11.71598877 -3.16625977 12.95654297 C-4.10417964 15.30710037 -5.05151417 17.65369096 -6 20 C-6.81287036 22.04151924 -7.62546653 24.08314773 -8.4375 26.125 C-8.95736752 27.41705569 -9.47772686 28.70891484 -10 30 C-11.32 29.67 -12.64 29.34 -14 29 C-5.8961039 5.8961039 -5.8961039 5.8961039 0 0 Z " fill="#0D0C12" transform="translate(213,198)"/>
<path d="M0 0 C3.28217255 3.05808381 5.09035573 6.64784238 7.0625 10.625 C7.41957031 11.33978516 7.77664063 12.05457031 8.14453125 12.79101562 C10.58255923 17.80807694 12.20687927 22.44815487 13 28 C11.68 28 10.36 28 9 28 C7.49500991 23.71006667 5.99685363 19.41777842 4.5 15.125 C4.07074219 13.90167969 3.64148438 12.67835938 3.19921875 11.41796875 C2.79316406 10.25136719 2.38710938 9.08476562 1.96875 7.8828125 C1.59169922 6.80402832 1.21464844 5.72524414 0.82617188 4.61376953 C0 2 0 2 0 0 Z " fill="#0F0F13" transform="translate(299,200)"/>
<path d="M0 0 C0.33 0 0.66 0 1 0 C1 5.94 1 11.88 1 18 C2.65 18 4.3 18 6 18 C6.33 18.33 6.66 18.66 7 19 C6.30232558 25.39534884 6.30232558 25.39534884 5 28 C3.35 28 1.7 28 0 28 C0 18.76 0 9.52 0 0 Z " fill="#311FA0" transform="translate(285,246)"/>
<path d="M0 0 C3.3 0 6.6 0 10 0 C8.58832253 5.26170694 6.25149768 8.72171358 3 13 C0.57666114 8.70497665 0.42944517 4.8670453 0 0 Z " fill="#07070B" transform="translate(234,279)"/>
<path d="M0 0 C0.99 0.33 1.98 0.66 3 1 C3.89776517 3.71731597 4.58579476 6.27873527 5.1875 9.0625 C5.36474609 9.80177734 5.54199219 10.54105469 5.72460938 11.30273438 C6.85806045 16.3047984 7.16869909 20.87503792 7 26 C6.67 26 6.34 26 6 26 C5.74605469 25.154375 5.49210937 24.30875 5.23046875 23.4375 C2.9558014 15.88215418 2.9558014 15.88215418 0.1875 8.5 C-0.99787487 5.00626355 -1.18155594 3.43725365 0 0 Z " fill="#111016" transform="translate(341,224)"/>
<path d="M0 0 C-1.65 2.64 -3.3 5.28 -5 8 C-6.65 7.67 -8.3 7.34 -10 7 C-10.68707555 4.50935112 -11 2.62113708 -11 0 C-3.375 -1.125 -3.375 -1.125 0 0 Z " fill="#19039D" transform="translate(220,282)"/>
<path d="M0 0 C3.63 0 7.26 0 11 0 C9.02 3.63 7.04 7.26 5 11 C1.893533 7.893533 1.30910218 4.16532512 0 0 Z " fill="#040308" transform="translate(243,319)"/>
<path d="M0 0 C0.66 0 1.32 0 2 0 C2.66 3.3 3.32 6.6 4 10 C1.36 10.33 -1.28 10.66 -4 11 C-3.49357808 6.64477147 -2.61588503 3.55760365 0 0 Z " fill="#220CA9" transform="translate(230,303)"/>
<path d="M0 0 C1.4540625 0.0309375 1.4540625 0.0309375 2.9375 0.0625 C2.32759109 3.62030196 1.3591319 6.7453589 -0.0625 10.0625 C-2.54151962 8.12239769 -3.05920232 7.07624033 -3.8125 3.9375 C-3.895 2.98875 -3.9775 2.04 -4.0625 1.0625 C-3.0625 0.0625 -3.0625 0.0625 0 0 Z " fill="#040307" transform="translate(265.0625,318.9375)"/>
<path d="M0 0 C2.3129482 2.3129482 2.49580975 3.47904875 3.125 6.625 C3.29257813 7.44226563 3.46015625 8.25953125 3.6328125 9.1015625 C3.81457031 10.04128906 3.81457031 10.04128906 4 11 C1.69 11 -0.62 11 -3 11 C-2.32829194 7.1936543 -1.27253436 3.64793184 0 0 Z " fill="#1D0C85" transform="translate(246,183)"/>
<path d="M0 0 C2.18975773 3.28463659 2.99806563 6.20696275 4 10 C1.69 10 -0.62 10 -3 10 C-2.69201674 8.51988629 -2.378482 7.04092675 -2.0625 5.5625 C-1.88847656 4.73878906 -1.71445312 3.91507813 -1.53515625 3.06640625 C-1 1 -1 1 0 0 Z " fill="#1E0E87" transform="translate(265,184)"/>
<path d="M0 0 C2.49552403 2.27597646 4.06622986 4.60721178 5.6875 7.5625 C6.12449219 8.34753906 6.56148438 9.13257813 7.01171875 9.94140625 C8 12 8 12 8 14 C7.01 14.33 6.02 14.66 5 15 C4.16260219 12.8765984 3.33019717 10.7512272 2.5 8.625 C1.80390625 6.84996094 1.80390625 6.84996094 1.09375 5.0390625 C0 2 0 2 0 0 Z " fill="#141319" transform="translate(332,204)"/>
<path d="M0 0 C1.98 0 3.96 0 6 0 C5.34 2.97 4.68 5.94 4 9 C3.34 9 2.68 9 2 9 C1.34 6.03 0.68 3.06 0 0 Z " fill="#000005" transform="translate(253,201)"/>
<path d="M0 0 C3.37503669 1.1858237 5.64722731 2.27573689 8 5 C7.34 7.31 6.68 9.62 6 12 C4.28982274 9.4347341 3.09582189 7.12039035 1.875 4.3125 C1.52179688 3.50425781 1.16859375 2.69601563 0.8046875 1.86328125 C0.53914063 1.24839844 0.27359375 0.63351563 0 0 Z " fill="#2D2081" transform="translate(265,167)"/>
<path d="M0 0 C1 2 1 2 0.22265625 4.3828125 C-0.16019531 5.28773438 -0.54304688 6.19265625 -0.9375 7.125 C-1.31777344 8.03507812 -1.69804687 8.94515625 -2.08984375 9.8828125 C-2.54037109 10.93082031 -2.54037109 10.93082031 -3 12 C-4.32 11.34 -5.64 10.68 -7 10 C-3.535 5.05 -3.535 5.05 0 0 Z " fill="#240FA7" transform="translate(345,277)"/>
<path d="M0 0 C0.33 0.66 0.66 1.32 1 2 C0.22265625 4.1640625 0.22265625 4.1640625 -0.9375 6.625 C-1.31777344 7.44226563 -1.69804687 8.25953125 -2.08984375 9.1015625 C-2.39019531 9.72804687 -2.69054687 10.35453125 -3 11 C-5.35953094 8.64046906 -5.49141413 7.22104383 -6 4 C-4.02 2.68 -2.04 1.36 0 0 Z " fill="#22137E" transform="translate(245,167)"/>
<path d="M0 0 C1.32 0 2.64 0 4 0 C3.54738642 1.43931117 3.08767021 2.87638999 2.625 4.3125 C2.36976563 5.11300781 2.11453125 5.91351563 1.8515625 6.73828125 C1 9 1 9 -1 12 C-1.14285714 3.42857143 -1.14285714 3.42857143 0 0 Z " fill="#181527" transform="translate(197,235)"/>
<path d="M0 0 C1.31223496 3.93670488 0.24296256 6.12488144 -1 10 C-2.32 10 -3.64 10 -5 10 C-3.66511872 6.40608886 -2.03977277 3.24509304 0 0 Z " fill="#1A1924" transform="translate(272,302)"/>
<path d="M0 0 C0.66 0.33 1.32 0.66 2 1 C-0.21928194 3.90802461 -1.92969143 5.95312762 -5 8 C-5.99 7.67 -6.98 7.34 -8 7 C-5.36 4.69 -2.72 2.38 0 0 Z " fill="#171717" transform="translate(284,339)"/>
<path d="M0 0 C0.99 0 1.98 0 3 0 C4.60725635 3.21451269 4.05748185 6.43612536 4 10 C1.81024227 6.71536341 1.00193437 3.79303725 0 0 Z " fill="#14131A" transform="translate(311,234)"/>
<path d="M0 0 C0.99 0.33 1.98 0.66 3 1 C3 1.99 3 2.98 3 4 C1.35 4.66 -0.3 5.32 -2 6 C-1.34 4.02 -0.68 2.04 0 0 Z " fill="#321EB1" transform="translate(268,338)"/>
</svg>
